<svg xmlns="http://www.w3.org/2000/svg" height="491.52" width="366.653" xml:space="preserve"><path style="fill:#f57a16;fill-opacity:1;fill-rule:evenodd;stroke:none" d="M371.871 2330.35c3.481-68.82-2.355-138.62-17.871-208.39-17.191-77.3-52.258-174.29-97.137-241.5C-35.09 1409.21-119.77 862.52 223.887 394.398 327.828 252.82 474.934 119.891 635.914 46.68 686.582 23.648 748.113 2.48 804.219.16c16.797-.691 50.824.38 64.398 12.77 6.383 5.82 9.028 17.21 10.278 25.27 11.742 75.8 84.523 123.23 158.825 103.23 268.01-72.11 747.67-170.918 1005.26-10.078 133.48 83.347 147.01 275.019 273.35 269.539 36.07-1.559 70.92 3.859 104.4 17.531 134.92 55.07 215.65 228.387 256.83 358 67.36 212.008 83.11 457.968 65.95 678.838-9.55 122.75-31.25 257.43-69.09 387.02-17.82-68.42-42.63-134.59-75.95-196.55-37.84-70.37-103.56-160.31-173.21-203.64l-186.17-115.85v219.28c0 767.62-240.98 1477.82-922.33 1890.13-192.51 116.5-406.897 200.28-626.123 250.75 123.98-164.38 237.218-342.4 309.543-524.56 78.95-198.88 106.73-398.69 54.17-608.12-46.63-185.73-149.237-350.82-258.166-505.95l-103.825-147.85-98.14 151.69c-40.543 62.65-128.16 179.55-222.348 278.74" transform="matrix(.13333 0 0 -.13333 0 491.52)"/><path style="fill:#f8e116;fill-opacity:1;fill-rule:evenodd;stroke:none" d="M686.035 26.18c38.43-13.91 79.59-24.418 118.184-26.02 16.797-.691 50.824.38 64.398 12.77 6.383 5.82 9.028 17.21 10.278 25.27 11.742 75.8 84.523 123.23 158.825 103.23 234.95-63.211 632.52-146.918 900.59-58.27 167.13 187.11 396.49 487.512 40.59 940.17 25.2-304.021-116.58-392.228-116.58-392.228 0 1165.688-1020.757 1200.338-1020.757 1200.338 396.147-459.95 327.257-657.6 155.125-902.729-48.637 75.179-180.239 242.789-278.043 261.759 106.644-187.8-3.825-350.798-3.825-350.798C521.371 498.43 567.309 216.109 686.035 26.18" transform="matrix(.13333 0 0 -.13333 0 491.52)"/></svg>